<svg xmlns="http://www.w3.org/2000/svg" viewBox="0 0 1600 800" role="img" aria-label="Fresh mountain water and hydration background">
  <defs>
    <linearGradient id="sky" x1="0" y1="0" x2="1" y2="1">
      <stop offset="0" stop-color="#f7fcff"/>
      <stop offset="0.42" stop-color="#d9f2ff"/>
      <stop offset="1" stop-color="#a9d9f1"/>
    </linearGradient>
    <linearGradient id="water" x1="0" y1="0" x2="0" y2="1">
      <stop offset="0" stop-color="#8bd6ef"/>
      <stop offset="0.45" stop-color="#45a9d2"/>
      <stop offset="1" stop-color="#0b5f9c"/>
    </linearGradient>
    <linearGradient id="ridge1" x1="0" y1="0" x2="1" y2="1">
      <stop offset="0" stop-color="#7e9fb3"/>
      <stop offset="1" stop-color="#4d7692"/>
    </linearGradient>
    <linearGradient id="ridge2" x1="0" y1="0" x2="1" y2="1">
      <stop offset="0" stop-color="#416f8d"/>
      <stop offset="1" stop-color="#254f70"/>
    </linearGradient>
    <radialGradient id="sunGlow" cx="77%" cy="24%" r="36%">
      <stop offset="0" stop-color="#ffffff" stop-opacity="0.98"/>
      <stop offset="0.48" stop-color="#ffffff" stop-opacity="0.44"/>
      <stop offset="1" stop-color="#ffffff" stop-opacity="0"/>
    </radialGradient>
    <radialGradient id="redGlow" cx="88%" cy="63%" r="30%">
      <stop offset="0" stop-color="#ef4452" stop-opacity="0.25"/>
      <stop offset="1" stop-color="#ef4452" stop-opacity="0"/>
    </radialGradient>
    <linearGradient id="leftMist" x1="0" y1="0" x2="1" y2="0">
      <stop offset="0" stop-color="#ffffff" stop-opacity="0.8"/>
      <stop offset="0.58" stop-color="#ffffff" stop-opacity="0.12"/>
      <stop offset="1" stop-color="#ffffff" stop-opacity="0"/>
    </linearGradient>
    <filter id="blur18"><feGaussianBlur stdDeviation="18"/></filter>
    <filter id="blur7"><feGaussianBlur stdDeviation="7"/></filter>
  </defs>

  <rect width="1600" height="800" fill="url(#sky)"/>
  <rect width="1600" height="800" fill="url(#sunGlow)"/>

  <g opacity="0.72">
    <path d="M0 420 L140 300 L245 352 L370 214 L535 385 L686 278 L818 414 Z" fill="url(#ridge1)"/>
    <path d="M510 420 L700 293 L825 362 L995 218 L1172 375 L1327 276 L1600 412 Z" fill="url(#ridge2)" opacity="0.72"/>
    <path d="M270 420 L430 327 L558 382 L720 260 L895 401 L1040 324 L1215 418 Z" fill="#dbeaf1" opacity="0.46"/>
  </g>

  <path d="M0 413 C230 390 430 405 637 435 C846 466 1041 464 1223 430 C1394 398 1518 399 1600 414 L1600 800 L0 800 Z" fill="url(#water)"/>

  <g fill="none" stroke-linecap="round">
    <path d="M0 514 C210 468 386 486 559 531 C741 578 915 585 1096 540 C1282 494 1450 495 1600 526" stroke="#ffffff" stroke-width="13" opacity="0.5"/>
    <path d="M0 590 C205 553 391 564 577 606 C767 649 953 652 1139 609 C1319 567 1470 568 1600 590" stroke="#dff9ff" stroke-width="8" opacity="0.38"/>
    <path d="M0 662 C240 626 431 640 614 681 C803 723 993 724 1182 682 C1363 642 1502 644 1600 660" stroke="#ffffff" stroke-width="4" opacity="0.3"/>
    <path d="M112 721 C298 696 480 703 653 729 C841 758 1002 761 1187 734 C1350 710 1470 708 1563 720" stroke="#bcecff" stroke-width="3" opacity="0.26"/>
  </g>

  <ellipse cx="1184" cy="595" rx="300" ry="130" fill="url(#redGlow)" filter="url(#blur18)"/>
  <ellipse cx="1185" cy="649" rx="270" ry="54" fill="#073e6e" opacity="0.12" filter="url(#blur18)"/>

  <g opacity="0.5" fill="#ffffff">
    <circle cx="1078" cy="176" r="9"/>
    <circle cx="1141" cy="136" r="5"/>
    <circle cx="1247" cy="169" r="7"/>
    <circle cx="1326" cy="210" r="4"/>
    <circle cx="1392" cy="149" r="8"/>
    <circle cx="1450" cy="239" r="5"/>
  </g>

  <path d="M1026 502 C1112 472 1212 472 1308 498" stroke="#ffffff" stroke-width="16" opacity="0.2" fill="none" filter="url(#blur7)"/>
  <rect width="950" height="800" fill="url(#leftMist)"/>
</svg>